# xmcd
#
# Track frame offsets: 
#        150
#        15241
#        40057
#        55958
#        81775
#        97792
#        136336
#        152957
#        178635
#        197450
#        223072
#        244731
#        262272
#        289189
#        306345
#        325742
#
# Disc length: 4779 seconds
#
# Revision: 1
# Processed by: cddbd v1.5.2PL0 Copyright (c) Steve Scherf et al.
# Submitted via: ExactAudioCopy v1.3
#
DISCID=dc12a910
DTITLE=Various Artist - Akella Presents - vol.55 - Rockin' Blues  CD2
DYEAR=2015
DGENRE=Rockin' Blues
TTITLE0=Fast Eddie Clarke - Haven't Got the Time
TTITLE1=Jim Suhler - Anthem For The Blues
TTITLE2=The Boogie - Take Me Back To Tulsa
TTITLE3=The Kentucky Headhunters - Meet Me In Bluesland
TTITLE4=Smokehouse - Poontang Blues
TTITLE5=Chris Buck and The Big Horns - Still In Love With You
TTITLE6=Todd Griffin - Mountain Man
TTITLE7=Bobby Manriquez - Blue-G
TTITLE8=Terry Davidson and the Gears - Deep In The Blues
TTITLE9=The Five Dollar Sugar - Will To Fly
TTITLE10=Slowburner - Shout the Blues
TTITLE11=Laurence Jones - My Eyes Keep Me In Trouble
TTITLE12=The Mercy 4 - Sittin on Top of the World
TTITLE13=Jarekus Singleton - Keep Pushin'
TTITLE14=David Migden and The Twisted Roots - Wild World
TTITLE15=Voodoo Blue - Hey Joe
EXTD=
EXTT0=
EXTT1=
EXTT2=
EXTT3=
EXTT4=
EXTT5=
EXTT6=
EXTT7=
EXTT8=
EXTT9=
EXTT10=
EXTT11=
EXTT12=
EXTT13=
EXTT14=
EXTT15=
PLAYORDER=
